<svg xmlns="http://www.w3.org/2000/svg" viewBox="0 0 100 100">
<rect width="100" height="100" rx="22" fill="#0d0c0a"/>
<g transform="translate(20,20)"><polygon points="30.00,30.00 29.05,29.46 28.13,28.75 27.24,27.91 26.40,26.94 25.60,25.85 24.85,24.65 24.17,23.38 23.55,22.02 23.01,20.61 22.56,19.16 22.19,17.67 21.93,16.16 21.77,14.66 21.72,13.16 21.79,11.69 21.99,10.25 22.32,8.87 22.79,7.56 23.41,6.33 24.19,5.19 25.13,4.17 26.24,3.26 27.56,3.83 28.75,4.55 29.81,5.43 30.74,6.44 31.56,7.58 32.26,8.81 32.85,10.13 33.32,11.53 33.69,12.98 33.95,14.48 34.11,15.99 34.16,17.53 34.13,19.05 34.00,20.56 33.78,22.02 33.48,23.44 33.09,24.79 32.62,26.06 32.07,27.23 31.45,28.29 30.76,29.22" fill="#c9f24c" stroke="#0d0c0a" stroke-width="1.02" stroke-linejoin="round"/>
<polygon points="30.00,30.00 30.94,29.45 32.01,29.01 33.19,28.66 34.46,28.41 35.80,28.26 37.20,28.21 38.65,28.26 40.13,28.40 41.62,28.64 43.11,28.98 44.58,29.41 46.02,29.93 47.40,30.54 48.73,31.25 49.96,32.04 51.11,32.93 52.14,33.91 53.04,34.98 53.79,36.13 54.39,37.37 54.81,38.70 55.03,40.11 53.89,40.97 52.66,41.64 51.37,42.12 50.03,42.42 48.64,42.56 47.22,42.55 45.78,42.40 44.34,42.11 42.90,41.70 41.47,41.18 40.08,40.56 38.72,39.84 37.42,39.05 36.18,38.19 35.02,37.26 33.94,36.29 32.97,35.28 32.10,34.24 31.36,33.18 30.76,32.11 30.30,31.05" fill="#c9f24c" stroke="#0d0c0a" stroke-width="1.02" stroke-linejoin="round"/>
<polygon points="30.00,30.00 30.00,31.09 29.86,32.24 29.57,33.43 29.15,34.65 28.60,35.89 27.95,37.13 27.18,38.36 26.32,39.57 25.36,40.74 24.33,41.87 23.22,42.93 22.05,43.91 20.83,44.80 19.56,45.59 18.25,46.27 16.91,46.81 15.55,47.22 14.17,47.46 12.79,47.54 11.42,47.43 10.06,47.13 8.72,46.62 8.55,45.20 8.59,43.81 8.82,42.45 9.23,41.13 9.80,39.86 10.52,38.64 11.37,37.47 12.34,36.36 13.42,35.32 14.58,34.34 15.82,33.45 17.11,32.63 18.45,31.90 19.82,31.26 21.20,30.71 22.58,30.27 23.95,29.93 25.28,29.70 26.57,29.59 27.79,29.60 28.94,29.73" fill="#c9f24c" stroke="#0d0c0a" stroke-width="1.02" stroke-linejoin="round"/>
<polygon points="30.00,30.00 29.93,29.15 29.97,28.26 30.11,27.35 30.35,26.43 30.69,25.50 31.11,24.58 31.61,23.68 32.19,22.80 32.83,21.95 33.54,21.15 34.31,20.40 35.13,19.71 36.00,19.10 36.90,18.56 37.84,18.12 38.81,17.78 39.80,17.55 40.81,17.43 41.83,17.45 42.85,17.60 43.88,17.90 44.89,18.36 45.09,19.46 45.14,20.53 45.04,21.56 44.81,22.55 44.46,23.50 43.99,24.41 43.42,25.26 42.77,26.07 42.03,26.82 41.22,27.51 40.36,28.14 39.44,28.70 38.49,29.20 37.52,29.62 36.52,29.97 35.52,30.24 34.53,30.42 33.55,30.52 32.60,30.53 31.68,30.45 30.81,30.28" fill="#c9f24c" stroke="#0d0c0a" stroke-width="1.02" stroke-linejoin="round"/>
<polygon points="30.00,30.00 30.77,30.36 31.52,30.84 32.24,31.42 32.92,32.09 33.55,32.84 34.14,33.67 34.67,34.55 35.14,35.49 35.55,36.48 35.89,37.49 36.16,38.53 36.34,39.59 36.44,40.64 36.45,41.70 36.37,42.73 36.18,43.74 35.88,44.72 35.48,45.65 34.96,46.52 34.31,47.33 33.54,48.07 32.63,48.72 31.58,48.34 30.63,47.85 29.79,47.25 29.05,46.55 28.40,45.77 27.85,44.91 27.39,43.99 27.02,43.02 26.74,42.01 26.54,40.96 26.43,39.90 26.40,38.83 26.45,37.76 26.57,36.70 26.77,35.67 27.03,34.67 27.37,33.71 27.77,32.81 28.24,31.98 28.77,31.23 29.36,30.56" fill="#c9f24c" stroke="#0d0c0a" stroke-width="1.02" stroke-linejoin="round"/>
<polygon points="30.00,30.00 29.30,30.49 28.51,30.90 27.65,31.23 26.73,31.48 25.76,31.65 24.76,31.75 23.72,31.77 22.67,31.71 21.61,31.57 20.56,31.36 19.53,31.07 18.52,30.70 17.56,30.26 16.64,29.74 15.79,29.15 15.01,28.48 14.31,27.74 13.71,26.92 13.22,26.03 12.84,25.07 12.59,24.03 12.48,22.92 13.33,22.20 14.23,21.63 15.17,21.20 16.14,20.90 17.14,20.73 18.16,20.68 19.19,20.74 20.21,20.91 21.23,21.17 22.23,21.53 23.21,21.96 24.15,22.47 25.06,23.05 25.91,23.68 26.71,24.37 27.44,25.10 28.10,25.87 28.68,26.67 29.16,27.49 29.55,28.32 29.83,29.16" fill="#c9f24c" stroke="#0d0c0a" stroke-width="1.02" stroke-linejoin="round"/>
<circle cx="30.00" cy="30.00" r="4.59" fill="#c9f24c"/>
<circle cx="30.00" cy="30.00" r="2.02" fill="#0d0c0a"/></g>
</svg>
