<svg xmlns="http://www.w3.org/2000/svg" viewBox="0 0 100 100">
<polygon points="50.00,50.00 48.42,49.09 46.89,47.92 45.41,46.52 43.99,44.89 42.66,43.08 41.42,41.09 40.28,38.96 39.25,36.71 38.36,34.35 37.60,31.93 36.99,29.45 36.55,26.94 36.28,24.43 36.20,21.93 36.31,19.48 36.64,17.09 37.20,14.79 37.99,12.60 39.02,10.55 40.32,8.66 41.89,6.94 43.74,5.44 45.93,6.38 47.91,7.59 49.68,9.05 51.24,10.74 52.60,12.63 53.77,14.68 54.74,16.89 55.53,19.21 56.14,21.64 56.58,24.13 56.84,26.66 56.94,29.21 56.88,31.75 56.67,34.26 56.30,36.71 55.79,39.07 55.15,41.32 54.36,43.44 53.45,45.39 52.42,47.15 51.27,48.69" fill="#c9f24c" stroke="#0d0c0a" stroke-width="1.70" stroke-linejoin="round"/>
<polygon points="50.00,50.00 51.57,49.09 53.35,48.34 55.31,47.76 57.43,47.35 59.67,47.11 62.01,47.02 64.42,47.10 66.89,47.34 69.37,47.74 71.85,48.29 74.30,49.01 76.70,49.88 79.01,50.90 81.21,52.08 83.27,53.41 85.18,54.89 86.89,56.52 88.39,58.29 89.65,60.22 90.65,62.29 91.34,64.50 91.72,66.86 89.81,68.29 87.77,69.40 85.62,70.20 83.38,70.70 81.07,70.94 78.70,70.92 76.30,70.66 73.89,70.18 71.49,69.50 69.12,68.63 66.79,67.60 64.54,66.41 62.36,65.08 60.30,63.64 58.36,62.10 56.57,60.48 54.94,58.80 53.50,57.06 52.27,55.30 51.26,53.52 50.50,51.75" fill="#c9f24c" stroke="#0d0c0a" stroke-width="1.70" stroke-linejoin="round"/>
<polygon points="50.00,50.00 50.00,51.82 49.76,53.73 49.28,55.72 48.58,57.75 47.67,59.82 46.58,61.89 45.30,63.94 43.86,65.95 42.27,67.91 40.55,69.78 38.71,71.54 36.76,73.18 34.71,74.67 32.60,75.99 30.41,77.11 28.18,78.02 25.91,78.69 23.62,79.10 21.32,79.23 19.04,79.06 16.77,78.55 14.54,77.70 14.25,75.33 14.32,73.01 14.70,70.75 15.38,68.55 16.33,66.43 17.53,64.39 18.95,62.45 20.57,60.60 22.36,58.86 24.30,57.24 26.36,55.75 28.52,54.38 30.76,53.16 33.03,52.10 35.34,51.19 37.64,50.45 39.91,49.88 42.13,49.50 44.28,49.32 46.32,49.33 48.24,49.56" fill="#c9f24c" stroke="#0d0c0a" stroke-width="1.70" stroke-linejoin="round"/>
<polygon points="50.00,50.00 49.88,48.58 49.95,47.10 50.18,45.59 50.59,44.05 51.14,42.51 51.85,40.97 52.68,39.47 53.65,38.00 54.72,36.59 55.91,35.25 57.19,34.00 58.55,32.85 59.99,31.83 61.50,30.94 63.07,30.20 64.69,29.63 66.34,29.24 68.02,29.05 69.72,29.08 71.42,29.34 73.13,29.84 74.82,30.61 75.16,32.44 75.23,34.21 75.07,35.93 74.68,37.59 74.09,39.17 73.32,40.68 72.37,42.11 71.28,43.45 70.05,44.70 68.71,45.85 67.26,46.90 65.74,47.84 64.16,48.66 62.53,49.37 60.87,49.95 59.20,50.39 57.55,50.70 55.91,50.87 54.33,50.89 52.80,50.75 51.35,50.46" fill="#c9f24c" stroke="#0d0c0a" stroke-width="1.70" stroke-linejoin="round"/>
<polygon points="50.00,50.00 51.29,50.61 52.54,51.40 53.73,52.37 54.86,53.48 55.92,54.74 56.89,56.11 57.78,57.59 58.57,59.16 59.25,60.80 59.82,62.49 60.26,64.22 60.57,65.98 60.74,67.74 60.76,69.49 60.61,71.22 60.30,72.90 59.81,74.53 59.13,76.08 58.26,77.53 57.18,78.88 55.89,80.11 54.38,81.19 52.63,80.57 51.06,79.74 49.65,78.74 48.41,77.58 47.33,76.28 46.41,74.85 45.65,73.32 45.03,71.70 44.57,70.01 44.24,68.27 44.05,66.50 44.00,64.71 44.08,62.93 44.28,61.17 44.61,59.44 45.06,57.78 45.62,56.18 46.29,54.69 47.07,53.30 47.95,52.05 48.93,50.94" fill="#c9f24c" stroke="#0d0c0a" stroke-width="1.70" stroke-linejoin="round"/>
<polygon points="50.00,50.00 48.83,50.81 47.52,51.50 46.09,52.05 44.55,52.47 42.94,52.76 41.26,52.91 39.54,52.94 37.78,52.84 36.02,52.62 34.27,52.26 32.55,51.78 30.87,51.17 29.27,50.43 27.74,49.57 26.32,48.58 25.02,47.47 23.85,46.23 22.85,44.87 22.03,43.39 21.39,41.78 20.98,40.05 20.79,38.20 22.21,37.00 23.71,36.04 25.28,35.33 26.91,34.83 28.57,34.55 30.27,34.47 31.98,34.57 33.69,34.85 35.38,35.29 37.05,35.88 38.68,36.60 40.26,37.45 41.76,38.41 43.19,39.47 44.52,40.61 45.74,41.83 46.83,43.11 47.80,44.44 48.61,45.81 49.25,47.20 49.72,48.60" fill="#c9f24c" stroke="#0d0c0a" stroke-width="1.70" stroke-linejoin="round"/>
<circle cx="50.00" cy="50.00" r="7.65" fill="#c9f24c"/>
<circle cx="50.00" cy="50.00" r="3.38" fill="#0d0c0a"/>
</svg>
