<svg xmlns="http://www.w3.org/2000/svg" viewBox="0 0 1200 630">
<defs><linearGradient id="bg" x1="0" y1="0" x2="0" y2="1"><stop offset="0" stop-color="#0d0c0a"/><stop offset="1" stop-color="#15120b"/></linearGradient></defs>
<rect width="1200" height="630" fill="url(#bg)"/>
<circle cx="40" cy="40" r="1" fill="#f1ebdc" opacity="0.06"/>
<circle cx="74" cy="40" r="1" fill="#f1ebdc" opacity="0.06"/>
<circle cx="108" cy="40" r="1" fill="#f1ebdc" opacity="0.06"/>
<circle cx="142" cy="40" r="1" fill="#f1ebdc" opacity="0.06"/>
<circle cx="176" cy="40" r="1" fill="#f1ebdc" opacity="0.06"/>
<circle cx="210" cy="40" r="1" fill="#f1ebdc" opacity="0.06"/>
<circle cx="244" cy="40" r="1" fill="#f1ebdc" opacity="0.06"/>
<circle cx="278" cy="40" r="1" fill="#f1ebdc" opacity="0.06"/>
<circle cx="312" cy="40" r="1" fill="#f1ebdc" opacity="0.06"/>
<circle cx="346" cy="40" r="1" fill="#f1ebdc" opacity="0.06"/>
<circle cx="380" cy="40" r="1" fill="#f1ebdc" opacity="0.06"/>
<circle cx="414" cy="40" r="1" fill="#f1ebdc" opacity="0.06"/>
<circle cx="448" cy="40" r="1" fill="#f1ebdc" opacity="0.06"/>
<circle cx="482" cy="40" r="1" fill="#f1ebdc" opacity="0.06"/>
<circle cx="516" cy="40" r="1" fill="#f1ebdc" opacity="0.06"/>
<circle cx="550" cy="40" r="1" fill="#f1ebdc" opacity="0.06"/>
<circle cx="584" cy="40" r="1" fill="#f1ebdc" opacity="0.06"/>
<circle cx="618" cy="40" r="1" fill="#f1ebdc" opacity="0.06"/>
<circle cx="652" cy="40" r="1" fill="#f1ebdc" opacity="0.06"/>
<circle cx="686" cy="40" r="1" fill="#f1ebdc" opacity="0.06"/>
<circle cx="720" cy="40" r="1" fill="#f1ebdc" opacity="0.06"/>
<circle cx="754" cy="40" r="1" fill="#f1ebdc" opacity="0.06"/>
<circle cx="788" cy="40" r="1" fill="#f1ebdc" opacity="0.06"/>
<circle cx="822" cy="40" r="1" fill="#f1ebdc" opacity="0.06"/>
<circle cx="856" cy="40" r="1" fill="#f1ebdc" opacity="0.06"/>
<circle cx="890" cy="40" r="1" fill="#f1ebdc" opacity="0.06"/>
<circle cx="924" cy="40" r="1" fill="#f1ebdc" opacity="0.06"/>
<circle cx="958" cy="40" r="1" fill="#f1ebdc" opacity="0.06"/>
<circle cx="992" cy="40" r="1" fill="#f1ebdc" opacity="0.06"/>
<circle cx="1026" cy="40" r="1" fill="#f1ebdc" opacity="0.06"/>
<circle cx="1060" cy="40" r="1" fill="#f1ebdc" opacity="0.06"/>
<circle cx="1094" cy="40" r="1" fill="#f1ebdc" opacity="0.06"/>
<circle cx="1128" cy="40" r="1" fill="#f1ebdc" opacity="0.06"/>
<circle cx="1162" cy="40" r="1" fill="#f1ebdc" opacity="0.06"/>
<circle cx="1196" cy="40" r="1" fill="#f1ebdc" opacity="0.06"/>
<circle cx="40" cy="74" r="1" fill="#f1ebdc" opacity="0.06"/>
<circle cx="74" cy="74" r="1" fill="#f1ebdc" opacity="0.06"/>
<circle cx="108" cy="74" r="1" fill="#f1ebdc" opacity="0.06"/>
<circle cx="142" cy="74" r="1" fill="#f1ebdc" opacity="0.06"/>
<circle cx="176" cy="74" r="1" fill="#f1ebdc" opacity="0.06"/>
<circle cx="210" cy="74" r="1" fill="#f1ebdc" opacity="0.06"/>
<circle cx="244" cy="74" r="1" fill="#f1ebdc" opacity="0.06"/>
<circle cx="278" cy="74" r="1" fill="#f1ebdc" opacity="0.06"/>
<circle cx="312" cy="74" r="1" fill="#f1ebdc" opacity="0.06"/>
<circle cx="346" cy="74" r="1" fill="#f1ebdc" opacity="0.06"/>
<circle cx="380" cy="74" r="1" fill="#f1ebdc" opacity="0.06"/>
<circle cx="414" cy="74" r="1" fill="#f1ebdc" opacity="0.06"/>
<circle cx="448" cy="74" r="1" fill="#f1ebdc" opacity="0.06"/>
<circle cx="482" cy="74" r="1" fill="#f1ebdc" opacity="0.06"/>
<circle cx="516" cy="74" r="1" fill="#f1ebdc" opacity="0.06"/>
<circle cx="550" cy="74" r="1" fill="#f1ebdc" opacity="0.06"/>
<circle cx="584" cy="74" r="1" fill="#f1ebdc" opacity="0.06"/>
<circle cx="618" cy="74" r="1" fill="#f1ebdc" opacity="0.06"/>
<circle cx="652" cy="74" r="1" fill="#f1ebdc" opacity="0.06"/>
<circle cx="686" cy="74" r="1" fill="#f1ebdc" opacity="0.06"/>
<circle cx="720" cy="74" r="1" fill="#f1ebdc" opacity="0.06"/>
<circle cx="754" cy="74" r="1" fill="#f1ebdc" opacity="0.06"/>
<circle cx="788" cy="74" r="1" fill="#f1ebdc" opacity="0.06"/>
<circle cx="822" cy="74" r="1" fill="#f1ebdc" opacity="0.06"/>
<circle cx="856" cy="74" r="1" fill="#f1ebdc" opacity="0.06"/>
<circle cx="890" cy="74" r="1" fill="#f1ebdc" opacity="0.06"/>
<circle cx="924" cy="74" r="1" fill="#f1ebdc" opacity="0.06"/>
<circle cx="958" cy="74" r="1" fill="#f1ebdc" opacity="0.06"/>
<circle cx="992" cy="74" r="1" fill="#f1ebdc" opacity="0.06"/>
<circle cx="1026" cy="74" r="1" fill="#f1ebdc" opacity="0.06"/>
<circle cx="1060" cy="74" r="1" fill="#f1ebdc" opacity="0.06"/>
<circle cx="1094" cy="74" r="1" fill="#f1ebdc" opacity="0.06"/>
<circle cx="1128" cy="74" r="1" fill="#f1ebdc" opacity="0.06"/>
<circle cx="1162" cy="74" r="1" fill="#f1ebdc" opacity="0.06"/>
<circle cx="1196" cy="74" r="1" fill="#f1ebdc" opacity="0.06"/>
<circle cx="40" cy="108" r="1" fill="#f1ebdc" opacity="0.06"/>
<circle cx="74" cy="108" r="1" fill="#f1ebdc" opacity="0.06"/>
<circle cx="108" cy="108" r="1" fill="#f1ebdc" opacity="0.06"/>
<circle cx="142" cy="108" r="1" fill="#f1ebdc" opacity="0.06"/>
<circle cx="176" cy="108" r="1" fill="#f1ebdc" opacity="0.06"/>
<circle cx="210" cy="108" r="1" fill="#f1ebdc" opacity="0.06"/>
<circle cx="244" cy="108" r="1" fill="#f1ebdc" opacity="0.06"/>
<circle cx="278" cy="108" r="1" fill="#f1ebdc" opacity="0.06"/>
<circle cx="312" cy="108" r="1" fill="#f1ebdc" opacity="0.06"/>
<circle cx="346" cy="108" r="1" fill="#f1ebdc" opacity="0.06"/>
<circle cx="380" cy="108" r="1" fill="#f1ebdc" opacity="0.06"/>
<circle cx="414" cy="108" r="1" fill="#f1ebdc" opacity="0.06"/>
<circle cx="448" cy="108" r="1" fill="#f1ebdc" opacity="0.06"/>
<circle cx="482" cy="108" r="1" fill="#f1ebdc" opacity="0.06"/>
<circle cx="516" cy="108" r="1" fill="#f1ebdc" opacity="0.06"/>
<circle cx="550" cy="108" r="1" fill="#f1ebdc" opacity="0.06"/>
<circle cx="584" cy="108" r="1" fill="#f1ebdc" opacity="0.06"/>
<circle cx="618" cy="108" r="1" fill="#f1ebdc" opacity="0.06"/>
<circle cx="652" cy="108" r="1" fill="#f1ebdc" opacity="0.06"/>
<circle cx="686" cy="108" r="1" fill="#f1ebdc" opacity="0.06"/>
<circle cx="720" cy="108" r="1" fill="#f1ebdc" opacity="0.06"/>
<circle cx="754" cy="108" r="1" fill="#f1ebdc" opacity="0.06"/>
<circle cx="788" cy="108" r="1" fill="#f1ebdc" opacity="0.06"/>
<circle cx="822" cy="108" r="1" fill="#f1ebdc" opacity="0.06"/>
<circle cx="856" cy="108" r="1" fill="#f1ebdc" opacity="0.06"/>
<circle cx="890" cy="108" r="1" fill="#f1ebdc" opacity="0.06"/>
<circle cx="924" cy="108" r="1" fill="#f1ebdc" opacity="0.06"/>
<circle cx="958" cy="108" r="1" fill="#f1ebdc" opacity="0.06"/>
<circle cx="992" cy="108" r="1" fill="#f1ebdc" opacity="0.06"/>
<circle cx="1026" cy="108" r="1" fill="#f1ebdc" opacity="0.06"/>
<circle cx="1060" cy="108" r="1" fill="#f1ebdc" opacity="0.06"/>
<circle cx="1094" cy="108" r="1" fill="#f1ebdc" opacity="0.06"/>
<circle cx="1128" cy="108" r="1" fill="#f1ebdc" opacity="0.06"/>
<circle cx="1162" cy="108" r="1" fill="#f1ebdc" opacity="0.06"/>
<circle cx="1196" cy="108" r="1" fill="#f1ebdc" opacity="0.06"/>
<circle cx="40" cy="142" r="1" fill="#f1ebdc" opacity="0.06"/>
<circle cx="74" cy="142" r="1" fill="#f1ebdc" opacity="0.06"/>
<circle cx="108" cy="142" r="1" fill="#f1ebdc" opacity="0.06"/>
<circle cx="142" cy="142" r="1" fill="#f1ebdc" opacity="0.06"/>
<circle cx="176" cy="142" r="1" fill="#f1ebdc" opacity="0.06"/>
<circle cx="210" cy="142" r="1" fill="#f1ebdc" opacity="0.06"/>
<circle cx="244" cy="142" r="1" fill="#f1ebdc" opacity="0.06"/>
<circle cx="278" cy="142" r="1" fill="#f1ebdc" opacity="0.06"/>
<circle cx="312" cy="142" r="1" fill="#f1ebdc" opacity="0.06"/>
<circle cx="346" cy="142" r="1" fill="#f1ebdc" opacity="0.06"/>
<circle cx="380" cy="142" r="1" fill="#f1ebdc" opacity="0.06"/>
<circle cx="414" cy="142" r="1" fill="#f1ebdc" opacity="0.06"/>
<circle cx="448" cy="142" r="1" fill="#f1ebdc" opacity="0.06"/>
<circle cx="482" cy="142" r="1" fill="#f1ebdc" opacity="0.06"/>
<circle cx="516" cy="142" r="1" fill="#f1ebdc" opacity="0.06"/>
<circle cx="550" cy="142" r="1" fill="#f1ebdc" opacity="0.06"/>
<circle cx="584" cy="142" r="1" fill="#f1ebdc" opacity="0.06"/>
<circle cx="618" cy="142" r="1" fill="#f1ebdc" opacity="0.06"/>
<circle cx="652" cy="142" r="1" fill="#f1ebdc" opacity="0.06"/>
<circle cx="686" cy="142" r="1" fill="#f1ebdc" opacity="0.06"/>
<circle cx="720" cy="142" r="1" fill="#f1ebdc" opacity="0.06"/>
<circle cx="754" cy="142" r="1" fill="#f1ebdc" opacity="0.06"/>
<circle cx="788" cy="142" r="1" fill="#f1ebdc" opacity="0.06"/>
<circle cx="822" cy="142" r="1" fill="#f1ebdc" opacity="0.06"/>
<circle cx="856" cy="142" r="1" fill="#f1ebdc" opacity="0.06"/>
<circle cx="890" cy="142" r="1" fill="#f1ebdc" opacity="0.06"/>
<circle cx="924" cy="142" r="1" fill="#f1ebdc" opacity="0.06"/>
<circle cx="958" cy="142" r="1" fill="#f1ebdc" opacity="0.06"/>
<circle cx="992" cy="142" r="1" fill="#f1ebdc" opacity="0.06"/>
<circle cx="1026" cy="142" r="1" fill="#f1ebdc" opacity="0.06"/>
<circle cx="1060" cy="142" r="1" fill="#f1ebdc" opacity="0.06"/>
<circle cx="1094" cy="142" r="1" fill="#f1ebdc" opacity="0.06"/>
<circle cx="1128" cy="142" r="1" fill="#f1ebdc" opacity="0.06"/>
<circle cx="1162" cy="142" r="1" fill="#f1ebdc" opacity="0.06"/>
<circle cx="1196" cy="142" r="1" fill="#f1ebdc" opacity="0.06"/>
<circle cx="40" cy="176" r="1" fill="#f1ebdc" opacity="0.06"/>
<circle cx="74" cy="176" r="1" fill="#f1ebdc" opacity="0.06"/>
<circle cx="108" cy="176" r="1" fill="#f1ebdc" opacity="0.06"/>
<circle cx="142" cy="176" r="1" fill="#f1ebdc" opacity="0.06"/>
<circle cx="176" cy="176" r="1" fill="#f1ebdc" opacity="0.06"/>
<circle cx="210" cy="176" r="1" fill="#f1ebdc" opacity="0.06"/>
<circle cx="244" cy="176" r="1" fill="#f1ebdc" opacity="0.06"/>
<circle cx="278" cy="176" r="1" fill="#f1ebdc" opacity="0.06"/>
<circle cx="312" cy="176" r="1" fill="#f1ebdc" opacity="0.06"/>
<circle cx="346" cy="176" r="1" fill="#f1ebdc" opacity="0.06"/>
<circle cx="380" cy="176" r="1" fill="#f1ebdc" opacity="0.06"/>
<circle cx="414" cy="176" r="1" fill="#f1ebdc" opacity="0.06"/>
<circle cx="448" cy="176" r="1" fill="#f1ebdc" opacity="0.06"/>
<circle cx="482" cy="176" r="1" fill="#f1ebdc" opacity="0.06"/>
<circle cx="516" cy="176" r="1" fill="#f1ebdc" opacity="0.06"/>
<circle cx="550" cy="176" r="1" fill="#f1ebdc" opacity="0.06"/>
<circle cx="584" cy="176" r="1" fill="#f1ebdc" opacity="0.06"/>
<circle cx="618" cy="176" r="1" fill="#f1ebdc" opacity="0.06"/>
<circle cx="652" cy="176" r="1" fill="#f1ebdc" opacity="0.06"/>
<circle cx="686" cy="176" r="1" fill="#f1ebdc" opacity="0.06"/>
<circle cx="720" cy="176" r="1" fill="#f1ebdc" opacity="0.06"/>
<circle cx="754" cy="176" r="1" fill="#f1ebdc" opacity="0.06"/>
<circle cx="788" cy="176" r="1" fill="#f1ebdc" opacity="0.06"/>
<circle cx="822" cy="176" r="1" fill="#f1ebdc" opacity="0.06"/>
<circle cx="856" cy="176" r="1" fill="#f1ebdc" opacity="0.06"/>
<circle cx="890" cy="176" r="1" fill="#f1ebdc" opacity="0.06"/>
<circle cx="924" cy="176" r="1" fill="#f1ebdc" opacity="0.06"/>
<circle cx="958" cy="176" r="1" fill="#f1ebdc" opacity="0.06"/>
<circle cx="992" cy="176" r="1" fill="#f1ebdc" opacity="0.06"/>
<circle cx="1026" cy="176" r="1" fill="#f1ebdc" opacity="0.06"/>
<circle cx="1060" cy="176" r="1" fill="#f1ebdc" opacity="0.06"/>
<circle cx="1094" cy="176" r="1" fill="#f1ebdc" opacity="0.06"/>
<circle cx="1128" cy="176" r="1" fill="#f1ebdc" opacity="0.06"/>
<circle cx="1162" cy="176" r="1" fill="#f1ebdc" opacity="0.06"/>
<circle cx="1196" cy="176" r="1" fill="#f1ebdc" opacity="0.06"/>
<circle cx="40" cy="210" r="1" fill="#f1ebdc" opacity="0.06"/>
<circle cx="74" cy="210" r="1" fill="#f1ebdc" opacity="0.06"/>
<circle cx="108" cy="210" r="1" fill="#f1ebdc" opacity="0.06"/>
<circle cx="142" cy="210" r="1" fill="#f1ebdc" opacity="0.06"/>
<circle cx="176" cy="210" r="1" fill="#f1ebdc" opacity="0.06"/>
<circle cx="210" cy="210" r="1" fill="#f1ebdc" opacity="0.06"/>
<circle cx="244" cy="210" r="1" fill="#f1ebdc" opacity="0.06"/>
<circle cx="278" cy="210" r="1" fill="#f1ebdc" opacity="0.06"/>
<circle cx="312" cy="210" r="1" fill="#f1ebdc" opacity="0.06"/>
<circle cx="346" cy="210" r="1" fill="#f1ebdc" opacity="0.06"/>
<circle cx="380" cy="210" r="1" fill="#f1ebdc" opacity="0.06"/>
<circle cx="414" cy="210" r="1" fill="#f1ebdc" opacity="0.06"/>
<circle cx="448" cy="210" r="1" fill="#f1ebdc" opacity="0.06"/>
<circle cx="482" cy="210" r="1" fill="#f1ebdc" opacity="0.06"/>
<circle cx="516" cy="210" r="1" fill="#f1ebdc" opacity="0.06"/>
<circle cx="550" cy="210" r="1" fill="#f1ebdc" opacity="0.06"/>
<circle cx="584" cy="210" r="1" fill="#f1ebdc" opacity="0.06"/>
<circle cx="618" cy="210" r="1" fill="#f1ebdc" opacity="0.06"/>
<circle cx="652" cy="210" r="1" fill="#f1ebdc" opacity="0.06"/>
<circle cx="686" cy="210" r="1" fill="#f1ebdc" opacity="0.06"/>
<circle cx="720" cy="210" r="1" fill="#f1ebdc" opacity="0.06"/>
<circle cx="754" cy="210" r="1" fill="#f1ebdc" opacity="0.06"/>
<circle cx="788" cy="210" r="1" fill="#f1ebdc" opacity="0.06"/>
<circle cx="822" cy="210" r="1" fill="#f1ebdc" opacity="0.06"/>
<circle cx="856" cy="210" r="1" fill="#f1ebdc" opacity="0.06"/>
<circle cx="890" cy="210" r="1" fill="#f1ebdc" opacity="0.06"/>
<circle cx="924" cy="210" r="1" fill="#f1ebdc" opacity="0.06"/>
<circle cx="958" cy="210" r="1" fill="#f1ebdc" opacity="0.06"/>
<circle cx="992" cy="210" r="1" fill="#f1ebdc" opacity="0.06"/>
<circle cx="1026" cy="210" r="1" fill="#f1ebdc" opacity="0.06"/>
<circle cx="1060" cy="210" r="1" fill="#f1ebdc" opacity="0.06"/>
<circle cx="1094" cy="210" r="1" fill="#f1ebdc" opacity="0.06"/>
<circle cx="1128" cy="210" r="1" fill="#f1ebdc" opacity="0.06"/>
<circle cx="1162" cy="210" r="1" fill="#f1ebdc" opacity="0.06"/>
<circle cx="1196" cy="210" r="1" fill="#f1ebdc" opacity="0.06"/>
<circle cx="40" cy="244" r="1" fill="#f1ebdc" opacity="0.06"/>
<circle cx="74" cy="244" r="1" fill="#f1ebdc" opacity="0.06"/>
<circle cx="108" cy="244" r="1" fill="#f1ebdc" opacity="0.06"/>
<circle cx="142" cy="244" r="1" fill="#f1ebdc" opacity="0.06"/>
<circle cx="176" cy="244" r="1" fill="#f1ebdc" opacity="0.06"/>
<circle cx="210" cy="244" r="1" fill="#f1ebdc" opacity="0.06"/>
<circle cx="244" cy="244" r="1" fill="#f1ebdc" opacity="0.06"/>
<circle cx="278" cy="244" r="1" fill="#f1ebdc" opacity="0.06"/>
<circle cx="312" cy="244" r="1" fill="#f1ebdc" opacity="0.06"/>
<circle cx="346" cy="244" r="1" fill="#f1ebdc" opacity="0.06"/>
<circle cx="380" cy="244" r="1" fill="#f1ebdc" opacity="0.06"/>
<circle cx="414" cy="244" r="1" fill="#f1ebdc" opacity="0.06"/>
<circle cx="448" cy="244" r="1" fill="#f1ebdc" opacity="0.06"/>
<circle cx="482" cy="244" r="1" fill="#f1ebdc" opacity="0.06"/>
<circle cx="516" cy="244" r="1" fill="#f1ebdc" opacity="0.06"/>
<circle cx="550" cy="244" r="1" fill="#f1ebdc" opacity="0.06"/>
<circle cx="584" cy="244" r="1" fill="#f1ebdc" opacity="0.06"/>
<circle cx="618" cy="244" r="1" fill="#f1ebdc" opacity="0.06"/>
<circle cx="652" cy="244" r="1" fill="#f1ebdc" opacity="0.06"/>
<circle cx="686" cy="244" r="1" fill="#f1ebdc" opacity="0.06"/>
<circle cx="720" cy="244" r="1" fill="#f1ebdc" opacity="0.06"/>
<circle cx="754" cy="244" r="1" fill="#f1ebdc" opacity="0.06"/>
<circle cx="788" cy="244" r="1" fill="#f1ebdc" opacity="0.06"/>
<circle cx="822" cy="244" r="1" fill="#f1ebdc" opacity="0.06"/>
<circle cx="856" cy="244" r="1" fill="#f1ebdc" opacity="0.06"/>
<circle cx="890" cy="244" r="1" fill="#f1ebdc" opacity="0.06"/>
<circle cx="924" cy="244" r="1" fill="#f1ebdc" opacity="0.06"/>
<circle cx="958" cy="244" r="1" fill="#f1ebdc" opacity="0.06"/>
<circle cx="992" cy="244" r="1" fill="#f1ebdc" opacity="0.06"/>
<circle cx="1026" cy="244" r="1" fill="#f1ebdc" opacity="0.06"/>
<circle cx="1060" cy="244" r="1" fill="#f1ebdc" opacity="0.06"/>
<circle cx="1094" cy="244" r="1" fill="#f1ebdc" opacity="0.06"/>
<circle cx="1128" cy="244" r="1" fill="#f1ebdc" opacity="0.06"/>
<circle cx="1162" cy="244" r="1" fill="#f1ebdc" opacity="0.06"/>
<circle cx="1196" cy="244" r="1" fill="#f1ebdc" opacity="0.06"/>
<circle cx="40" cy="278" r="1" fill="#f1ebdc" opacity="0.06"/>
<circle cx="74" cy="278" r="1" fill="#f1ebdc" opacity="0.06"/>
<circle cx="108" cy="278" r="1" fill="#f1ebdc" opacity="0.06"/>
<circle cx="142" cy="278" r="1" fill="#f1ebdc" opacity="0.06"/>
<circle cx="176" cy="278" r="1" fill="#f1ebdc" opacity="0.06"/>
<circle cx="210" cy="278" r="1" fill="#f1ebdc" opacity="0.06"/>
<circle cx="244" cy="278" r="1" fill="#f1ebdc" opacity="0.06"/>
<circle cx="278" cy="278" r="1" fill="#f1ebdc" opacity="0.06"/>
<circle cx="312" cy="278" r="1" fill="#f1ebdc" opacity="0.06"/>
<circle cx="346" cy="278" r="1" fill="#f1ebdc" opacity="0.06"/>
<circle cx="380" cy="278" r="1" fill="#f1ebdc" opacity="0.06"/>
<circle cx="414" cy="278" r="1" fill="#f1ebdc" opacity="0.06"/>
<circle cx="448" cy="278" r="1" fill="#f1ebdc" opacity="0.06"/>
<circle cx="482" cy="278" r="1" fill="#f1ebdc" opacity="0.06"/>
<circle cx="516" cy="278" r="1" fill="#f1ebdc" opacity="0.06"/>
<circle cx="550" cy="278" r="1" fill="#f1ebdc" opacity="0.06"/>
<circle cx="584" cy="278" r="1" fill="#f1ebdc" opacity="0.06"/>
<circle cx="618" cy="278" r="1" fill="#f1ebdc" opacity="0.06"/>
<circle cx="652" cy="278" r="1" fill="#f1ebdc" opacity="0.06"/>
<circle cx="686" cy="278" r="1" fill="#f1ebdc" opacity="0.06"/>
<circle cx="720" cy="278" r="1" fill="#f1ebdc" opacity="0.06"/>
<circle cx="754" cy="278" r="1" fill="#f1ebdc" opacity="0.06"/>
<circle cx="788" cy="278" r="1" fill="#f1ebdc" opacity="0.06"/>
<circle cx="822" cy="278" r="1" fill="#f1ebdc" opacity="0.06"/>
<circle cx="856" cy="278" r="1" fill="#f1ebdc" opacity="0.06"/>
<circle cx="890" cy="278" r="1" fill="#f1ebdc" opacity="0.06"/>
<circle cx="924" cy="278" r="1" fill="#f1ebdc" opacity="0.06"/>
<circle cx="958" cy="278" r="1" fill="#f1ebdc" opacity="0.06"/>
<circle cx="992" cy="278" r="1" fill="#f1ebdc" opacity="0.06"/>
<circle cx="1026" cy="278" r="1" fill="#f1ebdc" opacity="0.06"/>
<circle cx="1060" cy="278" r="1" fill="#f1ebdc" opacity="0.06"/>
<circle cx="1094" cy="278" r="1" fill="#f1ebdc" opacity="0.06"/>
<circle cx="1128" cy="278" r="1" fill="#f1ebdc" opacity="0.06"/>
<circle cx="1162" cy="278" r="1" fill="#f1ebdc" opacity="0.06"/>
<circle cx="1196" cy="278" r="1" fill="#f1ebdc" opacity="0.06"/>
<circle cx="40" cy="312" r="1" fill="#f1ebdc" opacity="0.06"/>
<circle cx="74" cy="312" r="1" fill="#f1ebdc" opacity="0.06"/>
<circle cx="108" cy="312" r="1" fill="#f1ebdc" opacity="0.06"/>
<circle cx="142" cy="312" r="1" fill="#f1ebdc" opacity="0.06"/>
<circle cx="176" cy="312" r="1" fill="#f1ebdc" opacity="0.06"/>
<circle cx="210" cy="312" r="1" fill="#f1ebdc" opacity="0.06"/>
<circle cx="244" cy="312" r="1" fill="#f1ebdc" opacity="0.06"/>
<circle cx="278" cy="312" r="1" fill="#f1ebdc" opacity="0.06"/>
<circle cx="312" cy="312" r="1" fill="#f1ebdc" opacity="0.06"/>
<circle cx="346" cy="312" r="1" fill="#f1ebdc" opacity="0.06"/>
<circle cx="380" cy="312" r="1" fill="#f1ebdc" opacity="0.06"/>
<circle cx="414" cy="312" r="1" fill="#f1ebdc" opacity="0.06"/>
<circle cx="448" cy="312" r="1" fill="#f1ebdc" opacity="0.06"/>
<circle cx="482" cy="312" r="1" fill="#f1ebdc" opacity="0.06"/>
<circle cx="516" cy="312" r="1" fill="#f1ebdc" opacity="0.06"/>
<circle cx="550" cy="312" r="1" fill="#f1ebdc" opacity="0.06"/>
<circle cx="584" cy="312" r="1" fill="#f1ebdc" opacity="0.06"/>
<circle cx="618" cy="312" r="1" fill="#f1ebdc" opacity="0.06"/>
<circle cx="652" cy="312" r="1" fill="#f1ebdc" opacity="0.06"/>
<circle cx="686" cy="312" r="1" fill="#f1ebdc" opacity="0.06"/>
<circle cx="720" cy="312" r="1" fill="#f1ebdc" opacity="0.06"/>
<circle cx="754" cy="312" r="1" fill="#f1ebdc" opacity="0.06"/>
<circle cx="788" cy="312" r="1" fill="#f1ebdc" opacity="0.06"/>
<circle cx="822" cy="312" r="1" fill="#f1ebdc" opacity="0.06"/>
<circle cx="856" cy="312" r="1" fill="#f1ebdc" opacity="0.06"/>
<circle cx="890" cy="312" r="1" fill="#f1ebdc" opacity="0.06"/>
<circle cx="924" cy="312" r="1" fill="#f1ebdc" opacity="0.06"/>
<circle cx="958" cy="312" r="1" fill="#f1ebdc" opacity="0.06"/>
<circle cx="992" cy="312" r="1" fill="#f1ebdc" opacity="0.06"/>
<circle cx="1026" cy="312" r="1" fill="#f1ebdc" opacity="0.06"/>
<circle cx="1060" cy="312" r="1" fill="#f1ebdc" opacity="0.06"/>
<circle cx="1094" cy="312" r="1" fill="#f1ebdc" opacity="0.06"/>
<circle cx="1128" cy="312" r="1" fill="#f1ebdc" opacity="0.06"/>
<circle cx="1162" cy="312" r="1" fill="#f1ebdc" opacity="0.06"/>
<circle cx="1196" cy="312" r="1" fill="#f1ebdc" opacity="0.06"/>
<circle cx="40" cy="346" r="1" fill="#f1ebdc" opacity="0.06"/>
<circle cx="74" cy="346" r="1" fill="#f1ebdc" opacity="0.06"/>
<circle cx="108" cy="346" r="1" fill="#f1ebdc" opacity="0.06"/>
<circle cx="142" cy="346" r="1" fill="#f1ebdc" opacity="0.06"/>
<circle cx="176" cy="346" r="1" fill="#f1ebdc" opacity="0.06"/>
<circle cx="210" cy="346" r="1" fill="#f1ebdc" opacity="0.06"/>
<circle cx="244" cy="346" r="1" fill="#f1ebdc" opacity="0.06"/>
<circle cx="278" cy="346" r="1" fill="#f1ebdc" opacity="0.06"/>
<circle cx="312" cy="346" r="1" fill="#f1ebdc" opacity="0.06"/>
<circle cx="346" cy="346" r="1" fill="#f1ebdc" opacity="0.06"/>
<circle cx="380" cy="346" r="1" fill="#f1ebdc" opacity="0.06"/>
<circle cx="414" cy="346" r="1" fill="#f1ebdc" opacity="0.06"/>
<circle cx="448" cy="346" r="1" fill="#f1ebdc" opacity="0.06"/>
<circle cx="482" cy="346" r="1" fill="#f1ebdc" opacity="0.06"/>
<circle cx="516" cy="346" r="1" fill="#f1ebdc" opacity="0.06"/>
<circle cx="550" cy="346" r="1" fill="#f1ebdc" opacity="0.06"/>
<circle cx="584" cy="346" r="1" fill="#f1ebdc" opacity="0.06"/>
<circle cx="618" cy="346" r="1" fill="#f1ebdc" opacity="0.06"/>
<circle cx="652" cy="346" r="1" fill="#f1ebdc" opacity="0.06"/>
<circle cx="686" cy="346" r="1" fill="#f1ebdc" opacity="0.06"/>
<circle cx="720" cy="346" r="1" fill="#f1ebdc" opacity="0.06"/>
<circle cx="754" cy="346" r="1" fill="#f1ebdc" opacity="0.06"/>
<circle cx="788" cy="346" r="1" fill="#f1ebdc" opacity="0.06"/>
<circle cx="822" cy="346" r="1" fill="#f1ebdc" opacity="0.06"/>
<circle cx="856" cy="346" r="1" fill="#f1ebdc" opacity="0.06"/>
<circle cx="890" cy="346" r="1" fill="#f1ebdc" opacity="0.06"/>
<circle cx="924" cy="346" r="1" fill="#f1ebdc" opacity="0.06"/>
<circle cx="958" cy="346" r="1" fill="#f1ebdc" opacity="0.06"/>
<circle cx="992" cy="346" r="1" fill="#f1ebdc" opacity="0.06"/>
<circle cx="1026" cy="346" r="1" fill="#f1ebdc" opacity="0.06"/>
<circle cx="1060" cy="346" r="1" fill="#f1ebdc" opacity="0.06"/>
<circle cx="1094" cy="346" r="1" fill="#f1ebdc" opacity="0.06"/>
<circle cx="1128" cy="346" r="1" fill="#f1ebdc" opacity="0.06"/>
<circle cx="1162" cy="346" r="1" fill="#f1ebdc" opacity="0.06"/>
<circle cx="1196" cy="346" r="1" fill="#f1ebdc" opacity="0.06"/>
<circle cx="40" cy="380" r="1" fill="#f1ebdc" opacity="0.06"/>
<circle cx="74" cy="380" r="1" fill="#f1ebdc" opacity="0.06"/>
<circle cx="108" cy="380" r="1" fill="#f1ebdc" opacity="0.06"/>
<circle cx="142" cy="380" r="1" fill="#f1ebdc" opacity="0.06"/>
<circle cx="176" cy="380" r="1" fill="#f1ebdc" opacity="0.06"/>
<circle cx="210" cy="380" r="1" fill="#f1ebdc" opacity="0.06"/>
<circle cx="244" cy="380" r="1" fill="#f1ebdc" opacity="0.06"/>
<circle cx="278" cy="380" r="1" fill="#f1ebdc" opacity="0.06"/>
<circle cx="312" cy="380" r="1" fill="#f1ebdc" opacity="0.06"/>
<circle cx="346" cy="380" r="1" fill="#f1ebdc" opacity="0.06"/>
<circle cx="380" cy="380" r="1" fill="#f1ebdc" opacity="0.06"/>
<circle cx="414" cy="380" r="1" fill="#f1ebdc" opacity="0.06"/>
<circle cx="448" cy="380" r="1" fill="#f1ebdc" opacity="0.06"/>
<circle cx="482" cy="380" r="1" fill="#f1ebdc" opacity="0.06"/>
<circle cx="516" cy="380" r="1" fill="#f1ebdc" opacity="0.06"/>
<circle cx="550" cy="380" r="1" fill="#f1ebdc" opacity="0.06"/>
<circle cx="584" cy="380" r="1" fill="#f1ebdc" opacity="0.06"/>
<circle cx="618" cy="380" r="1" fill="#f1ebdc" opacity="0.06"/>
<circle cx="652" cy="380" r="1" fill="#f1ebdc" opacity="0.06"/>
<circle cx="686" cy="380" r="1" fill="#f1ebdc" opacity="0.06"/>
<circle cx="720" cy="380" r="1" fill="#f1ebdc" opacity="0.06"/>
<circle cx="754" cy="380" r="1" fill="#f1ebdc" opacity="0.06"/>
<circle cx="788" cy="380" r="1" fill="#f1ebdc" opacity="0.06"/>
<circle cx="822" cy="380" r="1" fill="#f1ebdc" opacity="0.06"/>
<circle cx="856" cy="380" r="1" fill="#f1ebdc" opacity="0.06"/>
<circle cx="890" cy="380" r="1" fill="#f1ebdc" opacity="0.06"/>
<circle cx="924" cy="380" r="1" fill="#f1ebdc" opacity="0.06"/>
<circle cx="958" cy="380" r="1" fill="#f1ebdc" opacity="0.06"/>
<circle cx="992" cy="380" r="1" fill="#f1ebdc" opacity="0.06"/>
<circle cx="1026" cy="380" r="1" fill="#f1ebdc" opacity="0.06"/>
<circle cx="1060" cy="380" r="1" fill="#f1ebdc" opacity="0.06"/>
<circle cx="1094" cy="380" r="1" fill="#f1ebdc" opacity="0.06"/>
<circle cx="1128" cy="380" r="1" fill="#f1ebdc" opacity="0.06"/>
<circle cx="1162" cy="380" r="1" fill="#f1ebdc" opacity="0.06"/>
<circle cx="1196" cy="380" r="1" fill="#f1ebdc" opacity="0.06"/>
<circle cx="40" cy="414" r="1" fill="#f1ebdc" opacity="0.06"/>
<circle cx="74" cy="414" r="1" fill="#f1ebdc" opacity="0.06"/>
<circle cx="108" cy="414" r="1" fill="#f1ebdc" opacity="0.06"/>
<circle cx="142" cy="414" r="1" fill="#f1ebdc" opacity="0.06"/>
<circle cx="176" cy="414" r="1" fill="#f1ebdc" opacity="0.06"/>
<circle cx="210" cy="414" r="1" fill="#f1ebdc" opacity="0.06"/>
<circle cx="244" cy="414" r="1" fill="#f1ebdc" opacity="0.06"/>
<circle cx="278" cy="414" r="1" fill="#f1ebdc" opacity="0.06"/>
<circle cx="312" cy="414" r="1" fill="#f1ebdc" opacity="0.06"/>
<circle cx="346" cy="414" r="1" fill="#f1ebdc" opacity="0.06"/>
<circle cx="380" cy="414" r="1" fill="#f1ebdc" opacity="0.06"/>
<circle cx="414" cy="414" r="1" fill="#f1ebdc" opacity="0.06"/>
<circle cx="448" cy="414" r="1" fill="#f1ebdc" opacity="0.06"/>
<circle cx="482" cy="414" r="1" fill="#f1ebdc" opacity="0.06"/>
<circle cx="516" cy="414" r="1" fill="#f1ebdc" opacity="0.06"/>
<circle cx="550" cy="414" r="1" fill="#f1ebdc" opacity="0.06"/>
<circle cx="584" cy="414" r="1" fill="#f1ebdc" opacity="0.06"/>
<circle cx="618" cy="414" r="1" fill="#f1ebdc" opacity="0.06"/>
<circle cx="652" cy="414" r="1" fill="#f1ebdc" opacity="0.06"/>
<circle cx="686" cy="414" r="1" fill="#f1ebdc" opacity="0.06"/>
<circle cx="720" cy="414" r="1" fill="#f1ebdc" opacity="0.06"/>
<circle cx="754" cy="414" r="1" fill="#f1ebdc" opacity="0.06"/>
<circle cx="788" cy="414" r="1" fill="#f1ebdc" opacity="0.06"/>
<circle cx="822" cy="414" r="1" fill="#f1ebdc" opacity="0.06"/>
<circle cx="856" cy="414" r="1" fill="#f1ebdc" opacity="0.06"/>
<circle cx="890" cy="414" r="1" fill="#f1ebdc" opacity="0.06"/>
<circle cx="924" cy="414" r="1" fill="#f1ebdc" opacity="0.06"/>
<circle cx="958" cy="414" r="1" fill="#f1ebdc" opacity="0.06"/>
<circle cx="992" cy="414" r="1" fill="#f1ebdc" opacity="0.06"/>
<circle cx="1026" cy="414" r="1" fill="#f1ebdc" opacity="0.06"/>
<circle cx="1060" cy="414" r="1" fill="#f1ebdc" opacity="0.06"/>
<circle cx="1094" cy="414" r="1" fill="#f1ebdc" opacity="0.06"/>
<circle cx="1128" cy="414" r="1" fill="#f1ebdc" opacity="0.06"/>
<circle cx="1162" cy="414" r="1" fill="#f1ebdc" opacity="0.06"/>
<circle cx="1196" cy="414" r="1" fill="#f1ebdc" opacity="0.06"/>
<circle cx="40" cy="448" r="1" fill="#f1ebdc" opacity="0.06"/>
<circle cx="74" cy="448" r="1" fill="#f1ebdc" opacity="0.06"/>
<circle cx="108" cy="448" r="1" fill="#f1ebdc" opacity="0.06"/>
<circle cx="142" cy="448" r="1" fill="#f1ebdc" opacity="0.06"/>
<circle cx="176" cy="448" r="1" fill="#f1ebdc" opacity="0.06"/>
<circle cx="210" cy="448" r="1" fill="#f1ebdc" opacity="0.06"/>
<circle cx="244" cy="448" r="1" fill="#f1ebdc" opacity="0.06"/>
<circle cx="278" cy="448" r="1" fill="#f1ebdc" opacity="0.06"/>
<circle cx="312" cy="448" r="1" fill="#f1ebdc" opacity="0.06"/>
<circle cx="346" cy="448" r="1" fill="#f1ebdc" opacity="0.06"/>
<circle cx="380" cy="448" r="1" fill="#f1ebdc" opacity="0.06"/>
<circle cx="414" cy="448" r="1" fill="#f1ebdc" opacity="0.06"/>
<circle cx="448" cy="448" r="1" fill="#f1ebdc" opacity="0.06"/>
<circle cx="482" cy="448" r="1" fill="#f1ebdc" opacity="0.06"/>
<circle cx="516" cy="448" r="1" fill="#f1ebdc" opacity="0.06"/>
<circle cx="550" cy="448" r="1" fill="#f1ebdc" opacity="0.06"/>
<circle cx="584" cy="448" r="1" fill="#f1ebdc" opacity="0.06"/>
<circle cx="618" cy="448" r="1" fill="#f1ebdc" opacity="0.06"/>
<circle cx="652" cy="448" r="1" fill="#f1ebdc" opacity="0.06"/>
<circle cx="686" cy="448" r="1" fill="#f1ebdc" opacity="0.06"/>
<circle cx="720" cy="448" r="1" fill="#f1ebdc" opacity="0.06"/>
<circle cx="754" cy="448" r="1" fill="#f1ebdc" opacity="0.06"/>
<circle cx="788" cy="448" r="1" fill="#f1ebdc" opacity="0.06"/>
<circle cx="822" cy="448" r="1" fill="#f1ebdc" opacity="0.06"/>
<circle cx="856" cy="448" r="1" fill="#f1ebdc" opacity="0.06"/>
<circle cx="890" cy="448" r="1" fill="#f1ebdc" opacity="0.06"/>
<circle cx="924" cy="448" r="1" fill="#f1ebdc" opacity="0.06"/>
<circle cx="958" cy="448" r="1" fill="#f1ebdc" opacity="0.06"/>
<circle cx="992" cy="448" r="1" fill="#f1ebdc" opacity="0.06"/>
<circle cx="1026" cy="448" r="1" fill="#f1ebdc" opacity="0.06"/>
<circle cx="1060" cy="448" r="1" fill="#f1ebdc" opacity="0.06"/>
<circle cx="1094" cy="448" r="1" fill="#f1ebdc" opacity="0.06"/>
<circle cx="1128" cy="448" r="1" fill="#f1ebdc" opacity="0.06"/>
<circle cx="1162" cy="448" r="1" fill="#f1ebdc" opacity="0.06"/>
<circle cx="1196" cy="448" r="1" fill="#f1ebdc" opacity="0.06"/>
<circle cx="40" cy="482" r="1" fill="#f1ebdc" opacity="0.06"/>
<circle cx="74" cy="482" r="1" fill="#f1ebdc" opacity="0.06"/>
<circle cx="108" cy="482" r="1" fill="#f1ebdc" opacity="0.06"/>
<circle cx="142" cy="482" r="1" fill="#f1ebdc" opacity="0.06"/>
<circle cx="176" cy="482" r="1" fill="#f1ebdc" opacity="0.06"/>
<circle cx="210" cy="482" r="1" fill="#f1ebdc" opacity="0.06"/>
<circle cx="244" cy="482" r="1" fill="#f1ebdc" opacity="0.06"/>
<circle cx="278" cy="482" r="1" fill="#f1ebdc" opacity="0.06"/>
<circle cx="312" cy="482" r="1" fill="#f1ebdc" opacity="0.06"/>
<circle cx="346" cy="482" r="1" fill="#f1ebdc" opacity="0.06"/>
<circle cx="380" cy="482" r="1" fill="#f1ebdc" opacity="0.06"/>
<circle cx="414" cy="482" r="1" fill="#f1ebdc" opacity="0.06"/>
<circle cx="448" cy="482" r="1" fill="#f1ebdc" opacity="0.06"/>
<circle cx="482" cy="482" r="1" fill="#f1ebdc" opacity="0.06"/>
<circle cx="516" cy="482" r="1" fill="#f1ebdc" opacity="0.06"/>
<circle cx="550" cy="482" r="1" fill="#f1ebdc" opacity="0.06"/>
<circle cx="584" cy="482" r="1" fill="#f1ebdc" opacity="0.06"/>
<circle cx="618" cy="482" r="1" fill="#f1ebdc" opacity="0.06"/>
<circle cx="652" cy="482" r="1" fill="#f1ebdc" opacity="0.06"/>
<circle cx="686" cy="482" r="1" fill="#f1ebdc" opacity="0.06"/>
<circle cx="720" cy="482" r="1" fill="#f1ebdc" opacity="0.06"/>
<circle cx="754" cy="482" r="1" fill="#f1ebdc" opacity="0.06"/>
<circle cx="788" cy="482" r="1" fill="#f1ebdc" opacity="0.06"/>
<circle cx="822" cy="482" r="1" fill="#f1ebdc" opacity="0.06"/>
<circle cx="856" cy="482" r="1" fill="#f1ebdc" opacity="0.06"/>
<circle cx="890" cy="482" r="1" fill="#f1ebdc" opacity="0.06"/>
<circle cx="924" cy="482" r="1" fill="#f1ebdc" opacity="0.06"/>
<circle cx="958" cy="482" r="1" fill="#f1ebdc" opacity="0.06"/>
<circle cx="992" cy="482" r="1" fill="#f1ebdc" opacity="0.06"/>
<circle cx="1026" cy="482" r="1" fill="#f1ebdc" opacity="0.06"/>
<circle cx="1060" cy="482" r="1" fill="#f1ebdc" opacity="0.06"/>
<circle cx="1094" cy="482" r="1" fill="#f1ebdc" opacity="0.06"/>
<circle cx="1128" cy="482" r="1" fill="#f1ebdc" opacity="0.06"/>
<circle cx="1162" cy="482" r="1" fill="#f1ebdc" opacity="0.06"/>
<circle cx="1196" cy="482" r="1" fill="#f1ebdc" opacity="0.06"/>
<circle cx="40" cy="516" r="1" fill="#f1ebdc" opacity="0.06"/>
<circle cx="74" cy="516" r="1" fill="#f1ebdc" opacity="0.06"/>
<circle cx="108" cy="516" r="1" fill="#f1ebdc" opacity="0.06"/>
<circle cx="142" cy="516" r="1" fill="#f1ebdc" opacity="0.06"/>
<circle cx="176" cy="516" r="1" fill="#f1ebdc" opacity="0.06"/>
<circle cx="210" cy="516" r="1" fill="#f1ebdc" opacity="0.06"/>
<circle cx="244" cy="516" r="1" fill="#f1ebdc" opacity="0.06"/>
<circle cx="278" cy="516" r="1" fill="#f1ebdc" opacity="0.06"/>
<circle cx="312" cy="516" r="1" fill="#f1ebdc" opacity="0.06"/>
<circle cx="346" cy="516" r="1" fill="#f1ebdc" opacity="0.06"/>
<circle cx="380" cy="516" r="1" fill="#f1ebdc" opacity="0.06"/>
<circle cx="414" cy="516" r="1" fill="#f1ebdc" opacity="0.06"/>
<circle cx="448" cy="516" r="1" fill="#f1ebdc" opacity="0.06"/>
<circle cx="482" cy="516" r="1" fill="#f1ebdc" opacity="0.06"/>
<circle cx="516" cy="516" r="1" fill="#f1ebdc" opacity="0.06"/>
<circle cx="550" cy="516" r="1" fill="#f1ebdc" opacity="0.06"/>
<circle cx="584" cy="516" r="1" fill="#f1ebdc" opacity="0.06"/>
<circle cx="618" cy="516" r="1" fill="#f1ebdc" opacity="0.06"/>
<circle cx="652" cy="516" r="1" fill="#f1ebdc" opacity="0.06"/>
<circle cx="686" cy="516" r="1" fill="#f1ebdc" opacity="0.06"/>
<circle cx="720" cy="516" r="1" fill="#f1ebdc" opacity="0.06"/>
<circle cx="754" cy="516" r="1" fill="#f1ebdc" opacity="0.06"/>
<circle cx="788" cy="516" r="1" fill="#f1ebdc" opacity="0.06"/>
<circle cx="822" cy="516" r="1" fill="#f1ebdc" opacity="0.06"/>
<circle cx="856" cy="516" r="1" fill="#f1ebdc" opacity="0.06"/>
<circle cx="890" cy="516" r="1" fill="#f1ebdc" opacity="0.06"/>
<circle cx="924" cy="516" r="1" fill="#f1ebdc" opacity="0.06"/>
<circle cx="958" cy="516" r="1" fill="#f1ebdc" opacity="0.06"/>
<circle cx="992" cy="516" r="1" fill="#f1ebdc" opacity="0.06"/>
<circle cx="1026" cy="516" r="1" fill="#f1ebdc" opacity="0.06"/>
<circle cx="1060" cy="516" r="1" fill="#f1ebdc" opacity="0.06"/>
<circle cx="1094" cy="516" r="1" fill="#f1ebdc" opacity="0.06"/>
<circle cx="1128" cy="516" r="1" fill="#f1ebdc" opacity="0.06"/>
<circle cx="1162" cy="516" r="1" fill="#f1ebdc" opacity="0.06"/>
<circle cx="1196" cy="516" r="1" fill="#f1ebdc" opacity="0.06"/>
<circle cx="40" cy="550" r="1" fill="#f1ebdc" opacity="0.06"/>
<circle cx="74" cy="550" r="1" fill="#f1ebdc" opacity="0.06"/>
<circle cx="108" cy="550" r="1" fill="#f1ebdc" opacity="0.06"/>
<circle cx="142" cy="550" r="1" fill="#f1ebdc" opacity="0.06"/>
<circle cx="176" cy="550" r="1" fill="#f1ebdc" opacity="0.06"/>
<circle cx="210" cy="550" r="1" fill="#f1ebdc" opacity="0.06"/>
<circle cx="244" cy="550" r="1" fill="#f1ebdc" opacity="0.06"/>
<circle cx="278" cy="550" r="1" fill="#f1ebdc" opacity="0.06"/>
<circle cx="312" cy="550" r="1" fill="#f1ebdc" opacity="0.06"/>
<circle cx="346" cy="550" r="1" fill="#f1ebdc" opacity="0.06"/>
<circle cx="380" cy="550" r="1" fill="#f1ebdc" opacity="0.06"/>
<circle cx="414" cy="550" r="1" fill="#f1ebdc" opacity="0.06"/>
<circle cx="448" cy="550" r="1" fill="#f1ebdc" opacity="0.06"/>
<circle cx="482" cy="550" r="1" fill="#f1ebdc" opacity="0.06"/>
<circle cx="516" cy="550" r="1" fill="#f1ebdc" opacity="0.06"/>
<circle cx="550" cy="550" r="1" fill="#f1ebdc" opacity="0.06"/>
<circle cx="584" cy="550" r="1" fill="#f1ebdc" opacity="0.06"/>
<circle cx="618" cy="550" r="1" fill="#f1ebdc" opacity="0.06"/>
<circle cx="652" cy="550" r="1" fill="#f1ebdc" opacity="0.06"/>
<circle cx="686" cy="550" r="1" fill="#f1ebdc" opacity="0.06"/>
<circle cx="720" cy="550" r="1" fill="#f1ebdc" opacity="0.06"/>
<circle cx="754" cy="550" r="1" fill="#f1ebdc" opacity="0.06"/>
<circle cx="788" cy="550" r="1" fill="#f1ebdc" opacity="0.06"/>
<circle cx="822" cy="550" r="1" fill="#f1ebdc" opacity="0.06"/>
<circle cx="856" cy="550" r="1" fill="#f1ebdc" opacity="0.06"/>
<circle cx="890" cy="550" r="1" fill="#f1ebdc" opacity="0.06"/>
<circle cx="924" cy="550" r="1" fill="#f1ebdc" opacity="0.06"/>
<circle cx="958" cy="550" r="1" fill="#f1ebdc" opacity="0.06"/>
<circle cx="992" cy="550" r="1" fill="#f1ebdc" opacity="0.06"/>
<circle cx="1026" cy="550" r="1" fill="#f1ebdc" opacity="0.06"/>
<circle cx="1060" cy="550" r="1" fill="#f1ebdc" opacity="0.06"/>
<circle cx="1094" cy="550" r="1" fill="#f1ebdc" opacity="0.06"/>
<circle cx="1128" cy="550" r="1" fill="#f1ebdc" opacity="0.06"/>
<circle cx="1162" cy="550" r="1" fill="#f1ebdc" opacity="0.06"/>
<circle cx="1196" cy="550" r="1" fill="#f1ebdc" opacity="0.06"/>
<circle cx="40" cy="584" r="1" fill="#f1ebdc" opacity="0.06"/>
<circle cx="74" cy="584" r="1" fill="#f1ebdc" opacity="0.06"/>
<circle cx="108" cy="584" r="1" fill="#f1ebdc" opacity="0.06"/>
<circle cx="142" cy="584" r="1" fill="#f1ebdc" opacity="0.06"/>
<circle cx="176" cy="584" r="1" fill="#f1ebdc" opacity="0.06"/>
<circle cx="210" cy="584" r="1" fill="#f1ebdc" opacity="0.06"/>
<circle cx="244" cy="584" r="1" fill="#f1ebdc" opacity="0.06"/>
<circle cx="278" cy="584" r="1" fill="#f1ebdc" opacity="0.06"/>
<circle cx="312" cy="584" r="1" fill="#f1ebdc" opacity="0.06"/>
<circle cx="346" cy="584" r="1" fill="#f1ebdc" opacity="0.06"/>
<circle cx="380" cy="584" r="1" fill="#f1ebdc" opacity="0.06"/>
<circle cx="414" cy="584" r="1" fill="#f1ebdc" opacity="0.06"/>
<circle cx="448" cy="584" r="1" fill="#f1ebdc" opacity="0.06"/>
<circle cx="482" cy="584" r="1" fill="#f1ebdc" opacity="0.06"/>
<circle cx="516" cy="584" r="1" fill="#f1ebdc" opacity="0.06"/>
<circle cx="550" cy="584" r="1" fill="#f1ebdc" opacity="0.06"/>
<circle cx="584" cy="584" r="1" fill="#f1ebdc" opacity="0.06"/>
<circle cx="618" cy="584" r="1" fill="#f1ebdc" opacity="0.06"/>
<circle cx="652" cy="584" r="1" fill="#f1ebdc" opacity="0.06"/>
<circle cx="686" cy="584" r="1" fill="#f1ebdc" opacity="0.06"/>
<circle cx="720" cy="584" r="1" fill="#f1ebdc" opacity="0.06"/>
<circle cx="754" cy="584" r="1" fill="#f1ebdc" opacity="0.06"/>
<circle cx="788" cy="584" r="1" fill="#f1ebdc" opacity="0.06"/>
<circle cx="822" cy="584" r="1" fill="#f1ebdc" opacity="0.06"/>
<circle cx="856" cy="584" r="1" fill="#f1ebdc" opacity="0.06"/>
<circle cx="890" cy="584" r="1" fill="#f1ebdc" opacity="0.06"/>
<circle cx="924" cy="584" r="1" fill="#f1ebdc" opacity="0.06"/>
<circle cx="958" cy="584" r="1" fill="#f1ebdc" opacity="0.06"/>
<circle cx="992" cy="584" r="1" fill="#f1ebdc" opacity="0.06"/>
<circle cx="1026" cy="584" r="1" fill="#f1ebdc" opacity="0.06"/>
<circle cx="1060" cy="584" r="1" fill="#f1ebdc" opacity="0.06"/>
<circle cx="1094" cy="584" r="1" fill="#f1ebdc" opacity="0.06"/>
<circle cx="1128" cy="584" r="1" fill="#f1ebdc" opacity="0.06"/>
<circle cx="1162" cy="584" r="1" fill="#f1ebdc" opacity="0.06"/>
<circle cx="1196" cy="584" r="1" fill="#f1ebdc" opacity="0.06"/>
<circle cx="40" cy="618" r="1" fill="#f1ebdc" opacity="0.06"/>
<circle cx="74" cy="618" r="1" fill="#f1ebdc" opacity="0.06"/>
<circle cx="108" cy="618" r="1" fill="#f1ebdc" opacity="0.06"/>
<circle cx="142" cy="618" r="1" fill="#f1ebdc" opacity="0.06"/>
<circle cx="176" cy="618" r="1" fill="#f1ebdc" opacity="0.06"/>
<circle cx="210" cy="618" r="1" fill="#f1ebdc" opacity="0.06"/>
<circle cx="244" cy="618" r="1" fill="#f1ebdc" opacity="0.06"/>
<circle cx="278" cy="618" r="1" fill="#f1ebdc" opacity="0.06"/>
<circle cx="312" cy="618" r="1" fill="#f1ebdc" opacity="0.06"/>
<circle cx="346" cy="618" r="1" fill="#f1ebdc" opacity="0.06"/>
<circle cx="380" cy="618" r="1" fill="#f1ebdc" opacity="0.06"/>
<circle cx="414" cy="618" r="1" fill="#f1ebdc" opacity="0.06"/>
<circle cx="448" cy="618" r="1" fill="#f1ebdc" opacity="0.06"/>
<circle cx="482" cy="618" r="1" fill="#f1ebdc" opacity="0.06"/>
<circle cx="516" cy="618" r="1" fill="#f1ebdc" opacity="0.06"/>
<circle cx="550" cy="618" r="1" fill="#f1ebdc" opacity="0.06"/>
<circle cx="584" cy="618" r="1" fill="#f1ebdc" opacity="0.06"/>
<circle cx="618" cy="618" r="1" fill="#f1ebdc" opacity="0.06"/>
<circle cx="652" cy="618" r="1" fill="#f1ebdc" opacity="0.06"/>
<circle cx="686" cy="618" r="1" fill="#f1ebdc" opacity="0.06"/>
<circle cx="720" cy="618" r="1" fill="#f1ebdc" opacity="0.06"/>
<circle cx="754" cy="618" r="1" fill="#f1ebdc" opacity="0.06"/>
<circle cx="788" cy="618" r="1" fill="#f1ebdc" opacity="0.06"/>
<circle cx="822" cy="618" r="1" fill="#f1ebdc" opacity="0.06"/>
<circle cx="856" cy="618" r="1" fill="#f1ebdc" opacity="0.06"/>
<circle cx="890" cy="618" r="1" fill="#f1ebdc" opacity="0.06"/>
<circle cx="924" cy="618" r="1" fill="#f1ebdc" opacity="0.06"/>
<circle cx="958" cy="618" r="1" fill="#f1ebdc" opacity="0.06"/>
<circle cx="992" cy="618" r="1" fill="#f1ebdc" opacity="0.06"/>
<circle cx="1026" cy="618" r="1" fill="#f1ebdc" opacity="0.06"/>
<circle cx="1060" cy="618" r="1" fill="#f1ebdc" opacity="0.06"/>
<circle cx="1094" cy="618" r="1" fill="#f1ebdc" opacity="0.06"/>
<circle cx="1128" cy="618" r="1" fill="#f1ebdc" opacity="0.06"/>
<circle cx="1162" cy="618" r="1" fill="#f1ebdc" opacity="0.06"/>
<circle cx="1196" cy="618" r="1" fill="#f1ebdc" opacity="0.06"/>
<polygon points="940.00,315.00 931.24,309.96 922.71,303.47 914.49,295.65 906.64,286.62 899.23,276.53 892.32,265.50 885.99,253.67 880.29,241.15 875.31,228.08 871.09,214.60 867.72,200.82 865.25,186.89 863.76,172.93 863.31,159.07 863.97,145.44 865.80,132.17 868.87,119.40 873.25,107.24 879.01,95.84 886.21,85.31 894.92,75.80 905.21,67.43 917.40,72.64 928.40,79.39 938.22,87.52 946.90,96.89 954.46,107.37 960.93,118.80 966.35,131.05 970.74,143.97 974.13,157.42 976.54,171.25 978.01,185.32 978.56,199.49 978.23,213.62 977.04,227.55 975.01,241.15 972.19,254.28 968.59,266.79 964.25,278.53 959.19,289.36 953.44,299.15 947.04,307.74" fill="none" stroke="#c9f24c" stroke-width="2" opacity="0.5"/>
<polygon points="940.00,315.00 948.74,309.93 958.63,305.79 969.52,302.58 981.26,300.29 993.70,298.92 1006.70,298.46 1020.12,298.89 1033.81,300.22 1047.62,302.43 1061.41,305.53 1075.02,309.49 1088.32,314.32 1101.16,320.01 1113.39,326.55 1124.86,333.93 1135.43,342.15 1144.96,351.20 1153.30,361.07 1160.30,371.76 1165.81,383.26 1169.69,395.56 1171.80,408.65 1161.19,416.61 1149.85,422.76 1137.90,427.20 1125.44,430.03 1112.59,431.34 1099.45,431.23 1086.13,429.80 1072.75,427.14 1059.41,423.35 1046.22,418.52 1033.30,412.76 1020.75,406.15 1008.69,398.80 997.21,390.80 986.45,382.25 976.49,373.24 967.46,363.87 959.46,354.24 952.61,344.44 947.00,334.57 942.77,324.72" fill="none" stroke="#c9f24c" stroke-width="2" opacity="0.5"/>
<polygon points="940.00,315.00 940.02,325.11 938.66,335.74 936.00,346.77 932.11,358.08 927.07,369.54 920.98,381.04 913.89,392.44 905.90,403.63 897.07,414.49 887.50,424.88 877.26,434.69 866.43,443.79 855.08,452.06 843.31,459.38 831.17,465.63 818.77,470.68 806.17,474.40 793.45,476.68 780.69,477.40 767.98,476.43 755.39,473.64 743.00,468.92 741.41,455.75 741.75,442.86 743.88,430.29 747.66,418.08 752.96,406.29 759.62,394.97 767.52,384.15 776.51,373.89 786.47,364.24 797.24,355.23 808.69,346.92 820.69,339.36 833.08,332.58 845.75,326.65 858.54,321.60 871.32,317.48 883.95,314.35 896.29,312.24 908.20,311.20 919.55,311.28 930.20,312.53" fill="none" stroke="#c9f24c" stroke-width="2" opacity="0.5"/>
<polygon points="940.00,315.00 939.34,307.10 939.70,298.90 941.02,290.48 943.26,281.95 946.36,273.37 950.26,264.85 954.91,256.47 960.25,248.32 966.24,240.48 972.81,233.05 979.92,226.11 987.51,219.74 995.53,214.05 1003.91,209.10 1012.62,205.00 1021.58,201.83 1030.76,199.68 1040.10,198.63 1049.53,198.78 1059.01,200.21 1068.49,203.01 1077.90,207.26 1079.75,217.42 1080.17,227.29 1079.27,236.84 1077.13,246.03 1073.85,254.83 1069.54,263.22 1064.30,271.15 1058.21,278.60 1051.39,285.55 1043.92,291.94 1035.91,297.77 1027.45,302.99 1018.65,307.57 1009.60,311.48 1000.39,314.70 991.14,317.18 981.93,318.90 972.86,319.83 964.04,319.94 955.55,319.19 947.51,317.55" fill="none" stroke="#c9f24c" stroke-width="2" opacity="0.5"/>
<polygon points="940.00,315.00 947.17,318.38 954.10,322.79 960.72,328.15 966.99,334.35 972.87,341.32 978.30,348.96 983.23,357.17 987.62,365.88 991.41,374.98 994.56,384.39 997.02,394.02 998.74,403.77 999.66,413.56 999.75,423.30 998.95,432.89 997.21,442.24 994.49,451.26 990.73,459.87 985.88,467.97 979.91,475.46 972.75,482.27 964.36,488.30 954.63,484.82 945.87,480.25 938.06,474.69 931.17,468.24 925.18,461.00 920.07,453.08 915.83,444.57 912.41,435.57 909.81,426.19 908.01,416.53 906.97,406.68 906.68,396.74 907.11,386.83 908.25,377.03 910.07,367.45 912.54,358.20 915.66,349.36 919.39,341.04 923.71,333.35 928.60,326.37 934.04,320.23" fill="none" stroke="#c9f24c" stroke-width="2" opacity="0.5"/>
<polygon points="940.00,315.00 933.49,319.52 926.20,323.31 918.26,326.37 909.74,328.70 900.77,330.31 891.44,331.19 881.86,331.35 872.13,330.80 862.35,329.53 852.62,327.56 843.06,324.87 833.75,321.48 824.81,317.39 816.33,312.60 808.43,307.11 801.20,300.93 794.75,294.06 789.18,286.50 784.59,278.25 781.08,269.33 778.77,259.72 777.74,249.44 785.62,242.76 793.96,237.46 802.68,233.47 811.71,230.73 820.97,229.17 830.38,228.70 839.88,229.28 849.37,230.82 858.80,233.26 868.07,236.53 877.12,240.56 885.87,245.27 894.24,250.60 902.15,256.49 909.54,262.85 916.32,269.62 922.42,276.74 927.75,284.13 932.26,291.72 935.85,299.44 938.46,307.22" fill="none" stroke="#c9f24c" stroke-width="2" opacity="0.5"/>
<g transform="translate(90,250)"><polygon points="43.00,43.00 41.64,42.22 40.32,41.22 39.05,40.00 37.84,38.61 36.69,37.05 35.62,35.34 34.64,33.51 33.76,31.57 32.99,29.55 32.33,27.46 31.81,25.33 31.43,23.17 31.20,21.01 31.13,18.86 31.23,16.75 31.51,14.70 31.99,12.72 32.67,10.84 33.56,9.07 34.67,7.44 36.02,5.97 37.61,4.68 39.50,5.48 41.20,6.53 42.72,7.79 44.07,9.24 45.24,10.86 46.24,12.63 47.08,14.52 47.76,16.52 48.28,18.61 48.66,20.75 48.88,22.93 48.97,25.12 48.92,27.31 48.73,29.46 48.42,31.57 47.98,33.60 47.43,35.54 46.75,37.35 45.97,39.03 45.08,40.55 44.09,41.88" fill="#c9f24c" stroke="#0d0c0a" stroke-width="1.46" stroke-linejoin="round"/>
<polygon points="43.00,43.00 44.35,42.21 45.88,41.57 47.57,41.08 49.39,40.72 51.31,40.51 53.33,40.44 55.40,40.51 57.52,40.71 59.66,41.05 61.79,41.53 63.90,42.15 65.96,42.89 67.95,43.78 69.84,44.79 71.62,45.93 73.25,47.20 74.73,48.60 76.02,50.13 77.10,51.79 77.96,53.57 78.56,55.47 78.88,57.50 77.24,58.73 75.48,59.68 73.63,60.37 71.71,60.81 69.72,61.01 67.68,60.99 65.62,60.77 63.55,60.36 61.48,59.77 59.44,59.02 57.44,58.13 55.50,57.11 53.63,55.97 51.86,54.73 50.19,53.41 48.65,52.02 47.25,50.56 46.01,49.07 44.95,47.56 44.08,46.03 43.43,44.51" fill="#c9f24c" stroke="#0d0c0a" stroke-width="1.46" stroke-linejoin="round"/>
<polygon points="43.00,43.00 43.00,44.56 42.79,46.21 42.38,47.92 41.78,49.67 41.00,51.44 40.05,53.22 38.96,54.99 37.72,56.72 36.36,58.40 34.87,60.01 33.29,61.53 31.61,62.94 29.85,64.22 28.03,65.35 26.15,66.32 24.23,67.10 22.28,67.68 20.31,68.03 18.34,68.14 16.37,67.99 14.42,67.56 12.50,66.83 12.26,64.79 12.31,62.79 12.64,60.85 13.23,58.96 14.05,57.13 15.08,55.38 16.30,53.70 17.69,52.12 19.23,50.62 20.90,49.23 22.67,47.94 24.53,46.77 26.45,45.72 28.41,44.80 30.39,44.02 32.37,43.38 34.32,42.90 36.23,42.57 38.08,42.41 39.83,42.42 41.48,42.62" fill="#c9f24c" stroke="#0d0c0a" stroke-width="1.46" stroke-linejoin="round"/>
<polygon points="43.00,43.00 42.90,41.78 42.95,40.51 43.16,39.20 43.50,37.88 43.98,36.56 44.59,35.24 45.31,33.94 46.13,32.68 47.06,31.47 48.08,30.31 49.18,29.24 50.35,28.25 51.60,27.37 52.89,26.61 54.24,25.97 55.63,25.48 57.05,25.15 58.49,24.99 59.96,25.01 61.42,25.23 62.89,25.66 64.35,26.32 64.63,27.90 64.70,29.42 64.56,30.90 64.23,32.32 63.72,33.69 63.05,34.98 62.24,36.21 61.30,37.37 60.24,38.44 59.09,39.43 57.85,40.33 56.54,41.14 55.17,41.85 53.77,42.46 52.35,42.95 50.92,43.34 49.49,43.60 48.09,43.75 46.72,43.76 45.41,43.65 44.16,43.40" fill="#c9f24c" stroke="#0d0c0a" stroke-width="1.46" stroke-linejoin="round"/>
<polygon points="43.00,43.00 44.11,43.52 45.18,44.21 46.21,45.03 47.18,46.00 48.09,47.07 48.93,48.26 49.69,49.53 50.37,50.88 50.96,52.29 51.45,53.74 51.83,55.23 52.09,56.74 52.24,58.26 52.25,59.76 52.13,61.25 51.86,62.70 51.43,64.09 50.85,65.43 50.10,66.68 49.18,67.84 48.07,68.89 46.77,69.83 45.26,69.29 43.91,68.58 42.70,67.72 41.63,66.72 40.71,65.60 39.92,64.37 39.26,63.06 38.73,61.66 38.33,60.21 38.05,58.72 37.89,57.19 37.84,55.65 37.91,54.12 38.08,52.60 38.37,51.12 38.75,49.69 39.23,48.32 39.81,47.03 40.48,45.84 41.23,44.76 42.08,43.81" fill="#c9f24c" stroke="#0d0c0a" stroke-width="1.46" stroke-linejoin="round"/>
<polygon points="43.00,43.00 41.99,43.70 40.86,44.29 39.63,44.76 38.32,45.12 36.93,45.37 35.48,45.51 34.00,45.53 32.49,45.45 30.98,45.25 29.47,44.94 27.99,44.53 26.55,44.00 25.17,43.37 23.86,42.63 22.63,41.78 21.51,40.82 20.52,39.76 19.65,38.59 18.94,37.31 18.40,35.93 18.04,34.44 17.88,32.85 19.10,31.82 20.39,31.00 21.74,30.38 23.14,29.96 24.57,29.71 26.03,29.64 27.50,29.73 28.97,29.97 30.43,30.35 31.87,30.85 33.27,31.48 34.62,32.21 35.92,33.03 37.14,33.94 38.28,34.93 39.33,35.98 40.28,37.08 41.10,38.22 41.80,39.40 42.36,40.59 42.76,41.80" fill="#c9f24c" stroke="#0d0c0a" stroke-width="1.46" stroke-linejoin="round"/>
<circle cx="43.00" cy="43.00" r="6.58" fill="#c9f24c"/>
<circle cx="43.00" cy="43.00" r="2.90" fill="#0d0c0a"/></g>
<text x="92" y="300" font-family="'Space Mono', monospace" font-size="20" letter-spacing="6" fill="#c9f24c">TECHNOLOGY CONSULTANCY</text>
<text x="88" y="400" font-family="Fraunces, Georgia, serif" font-size="120" font-weight="600" fill="#f1ebdc">Mach<tspan fill="#c9f24c"> Lilies</tspan></text>
<rect x="92" y="440" width="80" height="3" fill="#c9f24c"/>
<text x="92" y="500" font-family="Fraunces, Georgia, serif" font-style="italic" font-size="34" fill="#f1ebdc">Mach speed. Lily craft.</text>
<rect x="20" y="20" width="1160" height="590" fill="none" stroke="#f1ebdc" stroke-width="1" opacity="0.25"/>
</svg>
